<svg id="mmc1d251af54d88749" width="100%" xmlns="http://www.w3.org/2000/svg" style="max-width: 285.3232421875px;" viewBox="-8 -8 285.3232421875 562.2513427734375" role="graphics-document document" aria-roledescription="flowchart-v2"><style>#mmc1d251af54d88749{font-family:ui-sans-serif,system-ui,"Segoe UI",Roboto,Arial,sans-serif;font-size:15px;fill:#000000;}#mmc1d251af54d88749 .error-icon{fill:#552222;}#mmc1d251af54d88749 .error-text{fill:#552222;stroke:#552222;}#mmc1d251af54d88749 .edge-thickness-normal{stroke-width:2px;}#mmc1d251af54d88749 .edge-thickness-thick{stroke-width:3.5px;}#mmc1d251af54d88749 .edge-pattern-solid{stroke-dasharray:0;}#mmc1d251af54d88749 .edge-pattern-dashed{stroke-dasharray:3;}#mmc1d251af54d88749 .edge-pattern-dotted{stroke-dasharray:2;}#mmc1d251af54d88749 .marker{fill:#666;stroke:#666;}#mmc1d251af54d88749 .marker.cross{stroke:#666;}#mmc1d251af54d88749 svg{font-family:ui-sans-serif,system-ui,"Segoe UI",Roboto,Arial,sans-serif;font-size:15px;}#mmc1d251af54d88749 .label{font-family:ui-sans-serif,system-ui,"Segoe UI",Roboto,Arial,sans-serif;color:#000000;}#mmc1d251af54d88749 .cluster-label text{fill:#333;}#mmc1d251af54d88749 .cluster-label span,#mmc1d251af54d88749 p{color:#333;}#mmc1d251af54d88749 .label text,#mmc1d251af54d88749 span,#mmc1d251af54d88749 p{fill:#000000;color:#000000;}#mmc1d251af54d88749 .node rect,#mmc1d251af54d88749 .node circle,#mmc1d251af54d88749 .node ellipse,#mmc1d251af54d88749 .node polygon,#mmc1d251af54d88749 .node path{fill:#eee;stroke:#999;stroke-width:1px;}#mmc1d251af54d88749 .flowchart-label text{text-anchor:middle;}#mmc1d251af54d88749 .node .katex path{fill:#000;stroke:#000;stroke-width:1px;}#mmc1d251af54d88749 .node .label{text-align:center;}#mmc1d251af54d88749 .node.clickable{cursor:pointer;}#mmc1d251af54d88749 .arrowheadPath{fill:#333333;}#mmc1d251af54d88749 .edgePath .path{stroke:#666;stroke-width:2.0px;}#mmc1d251af54d88749 .flowchart-link{stroke:#666;fill:none;}#mmc1d251af54d88749 .edgeLabel{background-color:#f1ebdd;text-align:center;}#mmc1d251af54d88749 .edgeLabel rect{opacity:1;background-color:#f1ebdd;fill:#f1ebdd;}#mmc1d251af54d88749 .labelBkg{background-color:transparent;}#mmc1d251af54d88749 .cluster rect{fill:hsl(0, 0%, 98.9215686275%);stroke:#707070;stroke-width:1px;}#mmc1d251af54d88749 .cluster text{fill:#333;}#mmc1d251af54d88749 .cluster span,#mmc1d251af54d88749 p{color:#333;}#mmc1d251af54d88749 div.mermaidTooltip{position:absolute;text-align:center;max-width:200px;padding:2px;font-family:ui-sans-serif,system-ui,"Segoe UI",Roboto,Arial,sans-serif;font-size:12px;background:hsl(-160, 0%, 93.3333333333%);border:1px solid #707070;border-radius:2px;pointer-events:none;z-index:100;}#mmc1d251af54d88749 .flowchartTitleText{text-anchor:middle;font-size:18px;fill:#000000;}#mmc1d251af54d88749 :root{--mermaid-font-family:"trebuchet ms",verdana,arial,sans-serif;}</style><g><marker id="mmc1d251af54d88749_flowchart-pointEnd" class="marker flowchart" viewBox="0 0 10 10" refX="6" refY="5" markerUnits="userSpaceOnUse" markerWidth="12" markerHeight="12" orient="auto"><path d="M 0 0 L 10 5 L 0 10 z" class="arrowMarkerPath" style="stroke-width: 1; stroke-dasharray: 1, 0;"></path></marker><marker id="mmc1d251af54d88749_flowchart-pointStart" class="marker flowchart" viewBox="0 0 10 10" refX="4.5" refY="5" markerUnits="userSpaceOnUse" markerWidth="12" markerHeight="12" orient="auto"><path d="M 0 5 L 10 10 L 10 0 z" class="arrowMarkerPath" style="stroke-width: 1; stroke-dasharray: 1, 0;"></path></marker><marker id="mmc1d251af54d88749_flowchart-circleEnd" class="marker flowchart" viewBox="0 0 10 10" refX="11" refY="5" markerUnits="userSpaceOnUse" markerWidth="11" markerHeight="11" orient="auto"><circle cx="5" cy="5" r="5" class="arrowMarkerPath" style="stroke-width: 1; stroke-dasharray: 1, 0;"></circle></marker><marker id="mmc1d251af54d88749_flowchart-circleStart" class="marker flowchart" viewBox="0 0 10 10" refX="-1" refY="5" markerUnits="userSpaceOnUse" markerWidth="11" markerHeight="11" orient="auto"><circle cx="5" cy="5" r="5" class="arrowMarkerPath" style="stroke-width: 1; stroke-dasharray: 1, 0;"></circle></marker><marker id="mmc1d251af54d88749_flowchart-crossEnd" class="marker cross flowchart" viewBox="0 0 11 11" refX="12" refY="5.2" markerUnits="userSpaceOnUse" markerWidth="11" markerHeight="11" orient="auto"><path d="M 1,1 l 9,9 M 10,1 l -9,9" class="arrowMarkerPath" style="stroke-width: 2; stroke-dasharray: 1, 0;"></path></marker><marker id="mmc1d251af54d88749_flowchart-crossStart" class="marker cross flowchart" viewBox="0 0 11 11" refX="-1" refY="5.2" markerUnits="userSpaceOnUse" markerWidth="11" markerHeight="11" orient="auto"><path d="M 1,1 l 9,9 M 10,1 l -9,9" class="arrowMarkerPath" style="stroke-width: 2; stroke-dasharray: 1, 0;"></path></marker><g class="root"><g class="clusters"></g><g class="edgePaths"><path d="M59.805,28L59.805,33.167C59.805,38.333,59.805,48.667,59.805,58.117C59.805,67.567,59.805,76.133,59.805,80.417L59.805,84.7" id="L-T-C-0" class="edge-thickness-normal edge-pattern-solid flowchart-link LS-T LE-C" style="fill:none;" marker-end="url(#mmc1d251af54d88749_flowchart-pointEnd)"></path><path d="M59.805,118L59.805,123.167C59.805,128.333,59.805,138.667,67.92,148.556C76.035,158.445,92.266,167.89,100.381,172.612L108.496,177.334" id="L-C-X-0" class="edge-thickness-normal edge-pattern-solid flowchart-link LS-C LE-X" style="fill:none;" marker-end="url(#mmc1d251af54d88749_flowchart-pointEnd)"></path><path d="M214.466,118L214.466,123.167C214.466,128.333,214.466,138.667,206.351,148.556C198.236,158.445,182.005,167.89,173.89,172.612L165.775,177.334" id="L-B-X-0" class="edge-thickness-normal edge-pattern-dotted flowchart-link LS-B LE-X" style="fill:none;stroke-width:2px;stroke-dasharray:3;" marker-end="url(#mmc1d251af54d88749_flowchart-pointEnd)"></path><path d="M137.135,208L137.135,213.167C137.135,218.333,137.135,228.667,137.135,238.117C137.135,247.567,137.135,256.133,137.135,260.417L137.135,264.7" id="L-X-L-0" class="edge-thickness-normal edge-pattern-solid flowchart-link LS-X LE-L" style="fill:none;" marker-end="url(#mmc1d251af54d88749_flowchart-pointEnd)"></path><path d="M137.135,344.585L137.135,349.751C137.135,354.918,137.135,365.251,137.135,374.701C137.135,384.151,137.135,392.718,137.135,397.001L137.135,401.285" id="L-L-F-0" class="edge-thickness-normal edge-pattern-solid flowchart-link LS-L LE-F" style="fill:none;" marker-end="url(#mmc1d251af54d88749_flowchart-pointEnd)"></path><path d="M137.135,456.251L137.135,461.418C137.135,466.585,137.135,476.918,137.135,486.368C137.135,495.818,137.135,504.385,137.135,508.668L137.135,512.951" id="L-F-S-0" class="edge-thickness-normal edge-pattern-solid flowchart-link LS-F LE-S" style="fill:none;" marker-end="url(#mmc1d251af54d88749_flowchart-pointEnd)"></path></g><g class="edgeLabels"><g class="edgeLabel" transform="translate(59.8046875, 59)"><g class="label" transform="translate(-16.29736328125, -9)"><rect rx="0" ry="0" width="32.571014404296875" height="18.00104522705078"></rect><text style=""><tspan xml:space="preserve" dy="1em" x="0" class="row">tags</tspan></text></g></g><g class="edgeLabel" transform="translate(59.8046875, 149)"><g class="label" transform="translate(-56.283935546875, -9)"><rect rx="0" ry="0" width="112.46551513671875" height="18.00104522705078"></rect><text style=""><tspan xml:space="preserve" dy="1em" x="0" class="row">category types</tspan></text></g></g><g class="edgeLabel" transform="translate(214.46630859375, 149)"><g class="label" transform="translate(-29.75, -9)"><rect rx="0" ry="0" width="59.44095230102539" height="18.00104522705078"></rect><text style=""><tspan xml:space="preserve" dy="1em" x="0" class="row">breach?</tspan></text></g></g><g class="edgeLabel" transform="translate(137.135498046875, 239)"><g class="label" transform="translate(-87.71044921875, -9)"><rect rx="0" ry="0" width="175.2578125" height="18.00104522705078"></rect><text style=""><tspan xml:space="preserve" dy="1em" x="0" class="row">base tax + any penalty</tspan></text></g></g><g class="edgeLabel" transform="translate(137.135498046875, 375.5846633911133)"><g class="label" transform="translate(-54.6083984375, -9)"><rect rx="0" ry="0" width="109.11648559570312" height="18.00104522705078"></rect><text style=""><tspan xml:space="preserve" dy="1em" x="0" class="row">weekly worker</tspan></text></g></g><g class="edgeLabel" transform="translate(137.135498046875, 487.25132751464844)"><g class="label" transform="translate(-40.774658203125, -9)"><rect rx="0" ry="0" width="81.47538757324219" height="18.00104522705078"></rect><text style=""><tspan xml:space="preserve" dy="1em" x="0" class="row">settlement</tspan></text></g></g></g><g class="nodes"><g class="node default default flowchart-label" id="flowchart-T-72" data-node="true" data-id="T" transform="translate(59.8046875, 14)"><rect class="basic label-container" style="" rx="0" ry="0" x="-48.40625" y="-14" width="96.8125" height="28"></rect><g class="label" style="" transform="translate(0, -9)"><rect></rect><text style=""><tspan xml:space="preserve" dy="1em" x="0" class="row">Transaction</tspan></text></g></g><g class="node default default flowchart-label" id="flowchart-C-73" data-node="true" data-id="C" transform="translate(59.8046875, 104)"><rect class="basic label-container" style="" rx="0" ry="0" x="-59.8046875" y="-14" width="119.609375" height="28"></rect><g class="label" style="" transform="translate(0, -9)"><rect></rect><text style=""><tspan xml:space="preserve" dy="1em" x="0" class="row">Categorization</tspan></text></g></g><g class="node default default flowchart-label" id="flowchart-X-75" data-node="true" data-id="X" transform="translate(137.135498046875, 194)"><rect class="basic label-container" style="" rx="0" ry="0" x="-45.84375" y="-14" width="91.6875" height="28"></rect><g class="label" style="" transform="translate(0, -9)"><rect></rect><text style=""><tspan xml:space="preserve" dy="1em" x="0" class="row">Tax engine</tspan></text></g></g><g class="node default default flowchart-label" id="flowchart-B-76" data-node="true" data-id="B" transform="translate(214.46630859375, 104)"><rect class="basic label-container" style="" rx="0" ry="0" x="-54.85693359375" y="-14" width="109.7138671875" height="28"></rect><g class="label" style="" transform="translate(0, -9)"><rect></rect><text style=""><tspan xml:space="preserve" dy="1em" x="0" class="row">Budget limits</tspan></text></g></g><g class="node default default flowchart-label" id="flowchart-L-79" data-node="true" data-id="L" transform="translate(137.135498046875, 307.29233169555664)"><path style="" d="M 0,10.52821997105644 a 45.46875,10.52821997105644 0,0,0 90.9375 0 a 45.46875,10.52821997105644 0,0,0 -90.9375 0 l 0,53.528219971056444 a 45.46875,10.52821997105644 0,0,0 90.9375 0 l 0,-53.528219971056444" transform="translate(-45.46875,-37.292329956584666)"></path><g class="label" style="" transform="translate(0, -16.5)"><rect></rect><text style=""><tspan xml:space="preserve" dy="1em" x="0" class="row">Weekly bill</tspan><tspan xml:space="preserve" dy="1em" x="0" class="row">accruing</tspan></text></g></g><g class="node default default flowchart-label" id="flowchart-F-81" data-node="true" data-id="F" transform="translate(137.135498046875, 431.41799545288086)"><path style="" d="M 0,7.222222222222222 a 25.390625,7.222222222222222 0,0,0 50.78125 0 a 25.390625,7.222222222222222 0,0,0 -50.78125 0 l 0,35.22222222222222 a 25.390625,7.222222222222222 0,0,0 50.78125 0 l 0,-35.22222222222222" transform="translate(-25.390625,-24.833333333333332)"></path><g class="label" style="" transform="translate(0, -9)"><rect></rect><text style=""><tspan xml:space="preserve" dy="1em" x="0" class="row">billed</tspan></text></g></g><g class="node default default flowchart-label" id="flowchart-S-83" data-node="true" data-id="S" transform="translate(137.135498046875, 532.2513275146484)"><rect class="basic label-container" style="" rx="0" ry="0" x="-66.623046875" y="-14" width="133.24609375" height="28"></rect><g class="label" style="" transform="translate(0, -9)"><rect></rect><text style=""><tspan xml:space="preserve" dy="1em" x="0" class="row">Savings account</tspan></text></g></g></g></g></g></svg>
